Coordinates
version=1
nRows=9
nColumns=24
inDegrees=yes

Units are S.I. units (second, meters, Newtons, ...)
Angles are in degrees.

endheader
time	pelvis_tilt	pelvis_list	pelvis_rotation	pelvis_tx	pelvis_ty	pelvis_tz	hip_flexion_r	hip_adduction_r	hip_rotation_r	knee_angle_r	ankle_angle_r	subtalar_angle_r	mtp_angle_r	hip_flexion_l	hip_adduction_l	hip_rotation_l	knee_angle_l	ankle_angle_l	subtalar_angle_l	mtp_angle_l	lumbar_extension	lumbar_bending	lumbar_rotation
      3.64500000	    -16.94088307	     11.30174945	     -6.96428183	     -2.22455880	     -0.05336748	     -0.25850106	     16.08902206	    -10.79823570	     -0.79562214	    -62.15048522	    -39.24696022	    -18.39205465	     -1.76342046	     46.15170667	     13.19137530	      2.06284216	    -32.65192167	     15.57021598	      4.21488594	    -69.64905155	     13.30205280	     -9.62794856	      8.94703928
      3.65000000	    -16.91650959	     11.23579356	     -6.93478167	     -2.21684940	     -0.05223743	     -0.25871480	     17.38290665	    -10.47794618	     -0.61332497	    -63.88277390	    -37.06461754	    -19.82549532	     -6.26157037	     45.45563270	     13.22062915	      1.90969377	    -32.58898302	     16.52943628	      4.80315386	    -69.67775275	     13.31902084	     -9.49321766	      8.63072875
      3.65500000	    -16.89893886	     11.17565366	     -6.92151880	     -2.20919343	     -0.05099191	     -0.25886064	     18.67288195	    -10.11473434	     -0.34805549	    -65.45419979	    -34.85984418	    -21.05691779	    -10.10181615	     44.73055428	     13.23644798	      1.77892700	    -32.45349327	     17.43022019	      5.38159780	    -69.78839269	     13.35103360	     -9.36504473	      8.32261741
      3.66000000	    -16.89789314	     11.12802907	     -6.90685319	     -2.20160072	     -0.04965413	     -0.25893217	     19.97548275	     -9.71411170	     -0.01565493	    -66.89387478	    -32.63454804	    -22.07966215	    -13.59053556	     43.98707727	     13.25393437	      1.66258865	    -32.23640367	     18.25086348	      5.92336593	    -69.91719805	     13.40024175	     -9.25226324	      8.03229704
      3.66500000	    -16.86715859	     11.14721064	     -6.93051084	     -2.19400399	     -0.04817015	     -0.25900874	     21.21664783	     -9.34529756	      0.53804944	    -68.09075384	    -31.17370056	    -23.07180540	    -13.59339223	     43.17586917	     13.32156271	      1.51674753	    -31.91181376	     18.91572618	      6.35606116	    -69.82900731	     13.44420017	     -9.19636019	      7.77240532
      3.67000000	    -16.89876945	     11.09172621	     -6.89510628	     -2.18647125	     -0.04666341	     -0.25889893	     22.55017087	     -8.86739816	      0.83797825	    -69.35050448	    -28.45842930	    -23.55552087	    -18.85830606	     42.39122017	     13.34111751	      1.53759349	    -31.55695139	     19.62082871	      6.79288835	    -70.23828315	     13.53467184	     -9.10048989	      7.50261122
      3.67500000	    -16.84871924	     11.12016565	     -6.92323288	     -2.17891154	     -0.04496843	     -0.25884167	     23.74293473	     -8.45388055	      1.43060591	    -70.31168795	    -27.00933791	    -24.18895833	    -18.70359893	     41.48013305	     13.43651451	      1.52269101	    -31.07667244	     20.11314561	      7.06491077	    -70.15421631	     13.56796236	     -9.06901203	      7.30857947
      3.68000000	    -16.80931972	     11.14473829	     -6.91090622	     -2.17134343	     -0.04322622	     -0.25878774	     24.91755163	     -8.04130228	      1.97614010	    -71.16193837	    -25.54901027	    -24.67499574	    -18.56519040	     40.54463424	     13.56104533	      1.57842651	    -30.53335687	     20.53503953	      7.26747416	    -70.10192060	     13.61109227	     -9.04778758	      7.07173656
      3.68500000	    -16.75832400	     11.15698908	     -6.90512741	     -2.16378985	     -0.04138216	     -0.25867021	     26.05835002	     -7.60046275	      2.52169889	    -71.89288308	    -24.11929812	    -25.03053590	    -18.40517464	     39.54546599	     13.68817662	      1.74058939	    -29.89977644	     20.88279336	      7.35937015	    -70.07043327	     13.64349751	     -9.02326625	      6.85238370
